<svg width="1891" height="360" viewBox="0 0 1891 360" fill="none" xmlns="http://www.w3.org/2000/svg">
<path d="M29 200.062C38.1414 198.131 43.9731 196.955 46.495 196.534C61.4205 194.04 70.7071 194.86 86.8902 196.534C104.736 198.38 114.318 200.893 131.506 207.581C133.072 208.191 138.059 209.734 146.469 212.212C158.182 212.594 166.896 212.594 172.613 212.212C179.476 211.754 187.195 209.029 193.365 208.87C207.245 208.513 217.182 208.968 223.178 210.237C230.29 211.777 236.343 215.313 241.338 220.845C246.332 226.378 254.62 238.725 266.199 257.888C274.819 273.599 283.353 284.934 291.801 291.893C300.249 298.852 311.14 303.518 324.474 305.891C334.969 307.271 342.94 306.557 348.389 303.747C353.837 300.937 359.758 294.488 366.151 284.398C368.307 282.177 373.328 278.811 381.215 274.302C389.101 269.792 400.687 260.135 415.973 245.331C426.6 236.919 434.885 231.34 440.825 228.591C446.766 225.842 451.373 225.458 454.645 227.439C462.927 231.974 470.605 231.282 477.679 225.364C484.753 219.445 493.091 206.736 502.692 187.237C517.147 157.003 527.69 138.037 534.322 130.342C540.953 122.646 549.437 119.53 559.773 120.994C569.337 120.675 577.421 117.173 584.026 110.489C590.63 103.805 598.714 90.943 608.279 71.9024C614.677 56.036 621.663 44.0832 629.237 36.0439C636.81 28.0047 644.545 24.3316 652.441 25.0247C665.829 30.1786 676.307 34.9467 683.873 39.329C691.44 43.7113 700.589 50.3105 711.321 59.1267C713.964 62.3321 716.589 67.2828 719.196 73.9788C722.093 81.4185 727.142 97.8301 730.4 106.974C736.734 124.749 741.243 135.642 744.648 143.981C752.17 162.4 755.711 170.192 755.269 167.357C769.244 165.296 779.465 164.663 785.933 165.458C792.4 166.252 797.493 168.154 801.211 171.165C809.301 177.846 816.249 182.516 822.053 185.174C825.394 186.704 834.085 187.056 839.64 188.613C842.368 189.378 845.648 190.93 849.478 193.268L877.086 213.481C886.559 217.313 893.649 221.274 898.356 225.364C903.062 229.453 908.19 236.109 913.74 245.331C918.133 254.814 921.46 262.476 923.723 268.318C928.236 279.972 932.976 296.44 937.407 303.747C938.862 306.146 944.248 314.565 945.836 316.948C950.429 323.837 957.918 329.959 968.304 335.313C969.316 336.539 975.944 330.859 988.188 318.274C1000.43 305.688 1021.46 282.942 1051.27 250.036C1059.18 254.788 1064.94 257.405 1068.55 257.888C1075.26 258.786 1080.05 257.248 1083.77 255.674C1090.49 252.831 1099.09 242.728 1109.58 225.364C1114.84 215.038 1119.23 207.716 1122.76 203.399C1126.29 199.081 1130.65 195.705 1135.83 193.268C1142.2 198.993 1146.65 203.349 1149.18 206.336C1156.75 215.252 1162.02 224.139 1166.75 229.742C1175.91 240.6 1188.14 256.988 1195.99 265.148C1212.98 282.8 1226.4 294.137 1236.25 299.158C1249.3 304.694 1263.73 305.23 1279.54 300.765C1295.36 296.3 1320.25 285.484 1354.21 268.318C1360.72 267.032 1366.64 267.032 1371.97 268.318C1377.29 269.605 1386.16 273.181 1398.59 279.046C1408.67 282.159 1417.04 283.943 1423.7 284.398C1430.36 284.852 1441.71 284.414 1457.75 283.083L1489.81 289.22C1498.39 290.808 1505.6 289.788 1511.45 286.16C1517.3 282.532 1526.92 273.108 1540.32 257.888C1551.41 251.026 1559.74 246.001 1565.3 242.814C1570.86 239.628 1578.9 235.27 1589.41 229.742C1600.66 230.565 1609.64 231.875 1616.35 233.672C1623.05 235.469 1633.45 239.356 1647.56 245.331C1656.43 250.332 1663.33 255.163 1668.28 259.825C1673.22 264.487 1680.12 272.678 1688.97 284.398C1696.19 291.659 1703.31 294.602 1710.33 293.227C1717.34 291.853 1730.78 284.88 1750.66 272.31C1764.52 263.708 1775.96 261.321 1784.99 265.148C1794.01 268.976 1806.35 281.45 1822.01 302.57C1828.68 302.454 1834.11 301.852 1838.3 300.765C1842.49 299.678 1849.06 297.165 1858 293.227" stroke="white" stroke-width="49" stroke-linecap="square"/>
</svg>
