<?xml version="1.0" encoding="UTF-8" standalone="no"?>
<!-- Created with Inkscape (http://www.inkscape.org/) -->

<svg
   version="1.1"
   id="svg2"
   width="8000"
   height="5333.3335"
   viewBox="0 0 8000 5333.3335"
   sodipodi:docname="vecteezy_continuous-one-line-drawing-of-traveling-people-with_.eps"
   xmlns:inkscape="http://www.inkscape.org/namespaces/inkscape"
   xmlns:sodipodi="http://sodipodi.sourceforge.net/DTD/sodipodi-0.dtd"
   xmlns="http://www.w3.org/2000/svg"
   xmlns:svg="http://www.w3.org/2000/svg">
  <defs
     id="defs6" />
  <sodipodi:namedview
     id="namedview4"
     pagecolor="#1d3557"
     bordercolor="#ffffff"
     borderopacity="0.25"
     inkscape:showpageshadow="2"
     inkscape:pageopacity="0.0"
     inkscape:pagecheckerboard="0"
     inkscape:deskcolor="#d1d1d1" />
  <g
     id="g8"
     inkscape:groupmode="layer"
     inkscape:label="ink_ext_XXXXXX"
     transform="matrix(1.3333333,0,0,-1.3333333,0,5333.3333)">
    <g
       id="g10"
       transform="scale(0.1)">
      <path
         d="M 0,0 H 60000 V 40000 H 0 V 0"
         style="fill:#1d3557;fill-opacity:0;fill-rule:evenodd;stroke:none"
         id="path12" />
      <path
         d="m 3180,4937.3 c 0,0 2234.89,-5.9 6704.64,-17.7 9060.66,3339.6 14100.06,5038.6 15118.16,5097.1 -191.3,411.4 105.9,800.3 -967,509.2 -484.9,-131.6 -56.5,-1110.5 -297.3,-648.4 -115.5,221.7 -71.4,907.2 307.3,1056.7 573.4,226.2 1014.4,24.6 987.3,-662.3 -1.2,-31.7 887.3,-508.7 732.1,-107.5 -75.2,194.4 109.7,51.8 -185.9,302.1 -310.8,263.1 146.1,1534.7 -408.3,1534.7 -336,0 -982.7,-64.9 -1228.7,96.2 -395.1,258.7 -188.5,-2068.4 -376.7,-1142.9 -18.5,91.2 -23,1182 -32.9,1399.5 -7.6,165.8 -413.3,1114 -441.3,1482.8 0,-3 243.8,1787.1 22.6,2680.2 -276,1114.6 1948.8,1195.6 1395.6,1589.8 -216.7,154.4 -1916.9,-1094.8 -1266.4,-143.9 2.9,4.3 1424.6,574.4 667.4,606.8 -575.5,24.6 -939,-1183.6 -755.8,1296.8 34.5,467.9 -198.7,1837.5 240.1,2050.9 625.7,304.4 2620.3,-552.9 1994.6,72.8 -273.9,273.9 -3035.1,91.8 -1934,546.1 87.9,36.3 1740.6,-549.2 841.8,91.1 -146.2,104.1 -1761.4,-119 -1185.9,1011.6 358.5,2204.2 164,880.2 -373.6,1911.3 -260.6,499.9 -135.9,-2282.4 254.9,-1274.2 265.8,685.8 -185.2,686.4 738.5,874.6 1198.1,244.2 1715.5,-579.9 2932.5,1188.5 331.7,481.8 1346,-433.5 1575.1,-943.1 4.6,-10.3 762.6,-1001.2 192.4,-1001.2 -74.1,0 -882.8,745.3 -1608,940.5 -1701.7,457.9 65.5,793 -419.5,1739.7 -34.9,68 1051.4,1349.2 1178,1230.9 196.2,-183.3 11.3,-281.8 -333.7,-733.3 -573.2,-750.3 -686.1,-1100.7 -1023.8,60.7 -343,1180 765.4,822.7 -1077.4,1737.1 -825.7,409.7 -628.6,-1910.3 98.8,-1999.8 1200.3,-147.6 823.2,362.8 725.5,1484 -55.1,631.9 -370,1259.2 -240.1,1941.7 16,181.6 29.1,1051.7 136.5,1060.6 167.1,13.9 787.1,752.4 1263,247.9 20.5,-21.7 288,-173 314.7,-170.7 -194.4,-67.3 -1401.6,-715.1 -1485.3,-695.3 -0.4,3.3 -86.4,47.6 -77.2,298.3 9.3,254.9 -692.5,1200.9 -970.9,1356.6 -987.3,551.9 -1518.1,404 -2421.9,-201.2 -343.7,-230.1 -534.4,-819.1 -565.2,-1212.2 -6.7,-85.3 -57.2,-658.5 12.6,-595.5 523.4,472.3 1349.9,530.6 1923.9,125.2 448.9,-317 817.9,-24 1228.8,227.6 908.3,556.2 -484.8,1325.2 -892.5,1648.3 -397.2,314.8 -1543.5,-35.1 -1838.1,-648.4 -332.6,-692.5 -493.2,-1546.5 -816.5,-2083.5 -728.1,-1209.2 -17.4,-2936.8 695.4,-3947.8 260.2,-369 1880.5,27.7 2237.3,407 138.1,146.7 958.4,744.4 504.5,129.2 -134.9,-182.9 -1261.1,-716.2 -1500.5,-777.6 -3083,-790.7 -2941.5,4837.7 -1410.7,4839.1 126.7,0.2 575.5,306.3 1121.2,241.4 725.4,-86.2 910.3,-630.3 1911.4,-40.3 287.8,169.7 753.6,635.8 398.3,970.9 -366.2,345.3 795.5,683.9 1031.5,515.8 172.4,-122.8 377.7,-10.7 586.5,-277 384.6,-490.7 -431.8,671.6 -180.8,758.5 199.6,69.1 955.7,351.8 955.7,546.1 0,76.2 -14,276.8 -75.8,333.7 23.8,57.1 -1084.5,1868.5 -2169.3,984.7 -163.5,-133.1 -363.7,-186 -637.2,-409.5 -247.8,-202.7 50.4,-1091 196,-1091 140,0 926.5,708 700.4,337.7 -10.1,-16.5 -948.4,-668.8 -563.9,-447.7 242.4,139.4 360.1,19.4 -29.1,-135.3 -99.7,-39.6 44.1,-604.2 151.8,-604.2 363.5,0 981.7,356.1 1284.2,561.3 100,67.9 1188.4,653.2 1188.4,379.3 0,-406.8 -157.1,-297.2 102.3,-620.7 185.3,-231.2 -147.8,-104.7 -147.8,-410.9 0,-222 48.2,-770.9 -261.8,-550 -220.7,157.3 778.3,-381.1 792.7,-375.3 876.1,-188 863.8,-1759.2 1058,-2499.1 240.1,-915 179.8,-459.2 -729.4,-925.4 -174.9,-89.6 -689.9,-268.9 -763.3,-9.1 -148.6,526.8 -968.7,864.5 55.5,1924 24.3,25.1 577.9,642.4 170.8,418.7 -267.2,-146.9 -930.8,-1304.8 -505.8,-319.9 51.2,118.7 1026.6,1544.5 278.2,753.3 -83.5,-88.3 -292,-622.5 -414.8,-731.6 95.5,445.7 -24.3,1236.9 -182,54.2 -201.5,-1511.1 347.7,-1812.1 518.4,-3200.9 28.1,-229.2 54.6,-1452.4 74.5,-484.1 9.8,474.5 -217.7,1637.1 -212.4,1633.1 399.5,-297.2 359.9,-1341.6 1490.6,-2084.3 200.6,-131.7 795.2,-662.7 1057.9,-671.3 16.1,-0.6 1083.1,-438.5 1274.3,-492 394.7,-110.3 409.7,-237.9 594.2,304.7 152.4,448 -64.2,398.4 -629.7,713 -552.1,307.1 -1271.5,912.2 -1562.5,1490.5 -11.1,22.2 -546,1201.4 -150.4,637.2 61.2,-87.4 177.2,-568.8 368,-671.4 2.7,-1.5 420.3,-533.1 480.2,-592.9 668.1,-668.8 452.5,-512.7 1294.6,-930.2 104.6,-51.8 297.4,-184 394.4,-217.5 244.6,89 387.4,448.7 895.1,273 -51.4,599.4 468.7,694.9 -257.9,605.5 -512.1,-63 -56.5,-284.9 257.9,-169.5 3.4,1.3 -520.7,165.7 -455.1,-345 2.6,-20.3 413.4,-72.1 576.5,-132.6 134.8,-50 724.3,-615.7 -136.6,-296 -301.3,111.9 678.1,-66.9 314.6,-325.9 -2.2,-1.7 -828.2,84.8 -117.4,27.7 42.2,-3.4 458.9,-418.8 -256.6,-273.1 -2.3,0.5 555.7,-176.5 267.9,-361.4 -340.8,-219 -986.2,259.3 -1467.6,60.6 -164.7,-67.9 -2195.7,598.7 -2457.5,917.6 -156.3,190.4 -1030.9,695.2 -1141.6,1050.6 -12,38.4 -19.2,10.5 -41.6,60.7 -117,376.3 -385.1,553.8 -216.1,-18.9 152.2,-515.3 -165.8,-636.2 280.5,-1106 382.3,-402.6 771.3,-1842.7 -270.5,-1108.7 -568.6,400.6 -586.3,197.9 -1015.1,208.4 -60.2,-62.6 -1269.6,-190.1 -1490.2,-246.3 -663.7,-169.3 -1143.7,-273.1 -1780,-562.6 -170.3,-77.5 -1010.9,-106.9 -287,-256.6 500,-103.4 768.1,560.6 1365.3,-439.9 286.1,-479.2 1122.6,-708.3 1122.6,-1309.8 0,-1127.6 -215.3,-745.5 -531,-1591.5 106.7,-1149.2 82.7,-2362.2 -250,-3428.4 -46.3,-148.2 -1917,-1464 -515.8,-614.5 786,476.4 -958.9,-991.1 -7.8,-326 887.8,620.7 302.3,-1113.3 427.4,-1878.4 106.8,-653.3 -212.5,-1448.8 462.9,-2025 100.1,-85.4 -30.3,-1151.3 361.4,-1701.6 22.3,-31.2 30.7,-164.1 52.9,-250.5 722.6,881.9 1230.7,1391 1524.3,1527.2 -343.8,6391.5 -515.8,9587.2 -515.8,9587.2 -101.1,111.3 -151.7,166.9 -151.7,166.9 308.5,-6588.5 462.6,-9882.8 462.6,-9882.8 2266.4,1711.6 3882,2103.4 4846.9,1175.4 101.8,726 -284.8,453.3 -595.3,924 -82.2,124.6 -267.3,-34.8 -492.8,572.5 -53.3,143.5 -1709.4,82.4 -1748.4,2.7 -662.5,-1353.6 753.9,-20.3 1111.3,-856.9 91.4,-213.9 -572.1,-172.6 -867.3,-312.5 -579.6,-274.8 -404.5,367.6 -528.3,744.6 -34,103.4 272.5,542.4 136.5,982.1 -207,669.5 1652.8,1289.7 937.9,1264.3 -280.2,-9.9 -1050.4,-855.6 -869.9,-318.6 140.4,417.6 736.1,445 716.9,726.9 -619.8,0 -971.5,-1057.1 -819.2,925.3 320.6,993 -564.3,1353 743.4,2169.3 66.7,41.7 2018.1,464 368,304.7 -574.8,-55.4 -1477.8,-1255.4 -857.3,-259.1 193.3,310.3 1097.1,434.2 915.4,528.3 -386.3,199.8 -1346.3,-877.9 -1180.7,-472.9 80,195.6 948.4,696.7 299.5,404.8 -310,-139.4 -112.8,-433.4 -657.5,141.3 -284.5,300.3 -1306.7,552.2 -1703.8,1131.7 -419.1,611.6 -2290.1,2199.3 -2341.3,2543.3 -81.3,546.7 1224.2,399.3 1790,589 348.1,116.8 1133.7,262.3 1410.8,-26.4 58.3,-60.8 740.4,-278.1 959.6,-81.1 56.1,50.5 1218.4,-1986.9 1362.7,-2154.1 415,-480.7 1531.6,-1885.1 1337.5,-2553.2 -0.7,-2.5 -19.1,-585.3 -19.1,-627.2 79.7,-300 -356.7,-3681.9 -496.7,-4207.2 -110.4,-414.3 179.5,-291.2 270.5,-827.8 36.5,-215.7 437,-164.2 469,-350.2 138.7,-307 571,-115.4 516.3,-743.3 -14.5,-166.9 -271.1,-160.2 212.4,-452.5 255.9,-154.6 333.1,-330.9 333.1,-328.7 0,48.4 3.4,265.5 -22.1,265.5 -359.9,0 -349.9,163.8 202.2,144.1 42.8,-1.6 356.2,19.5 336.3,-114.5 -9.4,-63.5 -470.5,12.2 -516.4,8.3 -10.3,8107.3 -15.5,12161 -15.5,12161 121.8,-17.9 195.2,-20.4 220,-7.6 -35.4,-8429.2 -53.1,-12643.8 -53.1,-12643.8 2939.7,-2320.7 5492.8,-4606.2 7659.2,-6856.8 13779.2,11.8 16057.4,13.8 16057.4,13.8"
         style="fill:none;stroke:#ffffff;stroke-width:100.004;stroke-linecap:round;stroke-linejoin:round;stroke-miterlimit:2.6131;stroke-dasharray:none;stroke-opacity:1"
         id="path14" />
    </g>
  </g>
</svg>
