<svg width="1891" height="675" viewBox="0 0 1891 675" fill="none" xmlns="http://www.w3.org/2000/svg">
<g clip-path="url(#clip0)">
<path d="M29 200.062C38.1414 198.131 43.9731 196.955 46.495 196.534C61.4205 194.04 70.7071 194.86 86.8902 196.534C104.736 198.38 114.318 200.893 131.506 207.581C133.072 208.191 138.059 209.734 146.469 212.212C158.182 212.594 166.896 212.594 172.613 212.212C179.476 211.754 187.195 209.029 193.365 208.87C207.245 208.513 217.182 208.968 223.178 210.237C230.29 211.777 236.343 215.313 241.338 220.845C246.332 226.377 254.62 238.725 266.199 257.888C274.819 273.599 283.353 284.934 291.801 291.893C300.249 298.852 311.14 303.518 324.474 305.891C334.969 307.271 342.94 306.557 348.389 303.747C353.837 300.937 359.758 294.488 366.151 284.398C368.307 282.177 373.328 278.811 381.215 274.302C389.101 269.792 400.687 260.135 415.973 245.331C426.6 236.919 434.885 231.339 440.825 228.591C446.766 225.842 451.373 225.458 454.645 227.439C462.927 231.974 470.605 231.282 477.679 225.364C484.753 219.445 493.091 206.736 502.692 187.237C517.147 157.003 527.69 138.037 534.322 130.342C540.953 122.646 549.437 119.53 559.773 120.994C569.337 120.675 577.421 117.173 584.026 110.489C590.63 103.805 598.714 90.943 608.279 71.9024C614.677 56.036 621.663 44.0832 629.237 36.0439C636.81 28.0047 644.545 24.3316 652.441 25.0247C665.829 30.1786 676.307 34.9467 683.873 39.329C691.44 43.7113 700.589 50.3105 711.321 59.1267C713.964 62.3321 716.589 67.2828 719.196 73.9788C722.093 81.4185 727.142 97.8301 730.4 106.974C736.734 124.749 741.243 135.642 744.648 143.981C752.17 162.4 755.711 170.192 755.269 167.357C769.244 165.296 779.465 164.663 785.933 165.458C792.4 166.252 797.493 168.154 801.211 171.165C809.301 177.846 816.249 182.516 822.053 185.174C825.394 186.704 834.085 187.056 839.64 188.613C842.368 189.378 845.648 190.93 849.478 193.268L877.086 213.481C886.559 217.313 893.649 221.274 898.356 225.364C903.062 229.453 908.19 236.109 913.74 245.331C918.133 254.814 921.46 262.476 923.723 268.318C928.236 279.972 932.976 296.44 937.407 303.747C938.862 306.146 944.248 314.565 945.836 316.948C950.429 323.837 957.918 329.959 968.304 335.313C969.316 336.539 975.944 330.859 988.188 318.274C1000.43 305.688 1021.46 282.942 1051.27 250.036C1059.18 254.788 1064.94 257.405 1068.55 257.888C1075.26 258.786 1080.05 257.248 1083.77 255.674C1090.49 252.831 1099.09 242.728 1109.58 225.364C1114.84 215.038 1119.23 207.716 1122.76 203.399C1126.29 199.081 1130.65 195.705 1135.83 193.268C1142.2 198.993 1146.65 203.349 1149.18 206.336C1156.75 215.252 1162.02 224.139 1166.75 229.742C1175.91 240.6 1188.14 256.988 1195.99 265.148C1212.98 282.8 1226.4 294.136 1236.25 299.158C1249.3 304.694 1263.73 305.23 1279.54 300.765C1295.36 296.3 1320.25 285.484 1354.21 268.318C1360.72 267.032 1366.64 267.032 1371.97 268.318C1377.29 269.605 1386.16 273.181 1398.59 279.046C1408.67 282.159 1417.04 283.943 1423.7 284.398C1430.36 284.852 1441.71 284.414 1457.75 283.083L1489.81 289.22C1498.39 290.808 1505.6 289.788 1511.45 286.16C1517.3 282.532 1526.92 273.108 1540.32 257.888C1551.41 251.025 1559.74 246.001 1565.3 242.814C1570.86 239.628 1578.9 235.27 1589.41 229.742C1600.66 230.565 1609.64 231.875 1616.35 233.672C1623.05 235.469 1633.45 239.356 1647.56 245.331C1656.43 250.332 1663.33 255.163 1668.28 259.825C1673.22 264.487 1680.12 272.678 1688.97 284.398C1696.19 291.659 1703.31 294.602 1710.33 293.227C1717.34 291.853 1730.78 284.88 1750.66 272.31C1764.52 263.708 1775.96 261.321 1784.99 265.148C1794.01 268.976 1806.35 281.45 1822.01 302.57C1828.68 302.454 1834.11 301.852 1838.3 300.765C1842.49 299.678 1849.06 297.165 1858 293.227" stroke="black" stroke-width="50" stroke-linecap="square"/>
</g>
<path d="M69.5696 427.63H151.08V445.3H87.9996V489H143.29V506.67H87.9996V565H69.5696V427.63ZM213.362 540.11C213.362 551.257 211.209 560.693 206.902 568.42C202.722 576.273 196.959 582.29 189.612 586.47C182.266 590.777 173.842 593.057 164.342 593.31V575.45C173.209 574.943 180.492 571.777 186.192 565.95C192.019 560.25 194.932 551.447 194.932 539.54V427.63H213.362V540.11ZM262.427 427.63H351.727V445.3H280.857V487.1H344.127V504.77H280.857V547.14H354.387V565H262.427V427.63ZM396.058 427.63H414.488V547.14H484.408V565H396.058V427.63ZM523.751 427.63H542.181V547.14H612.101V565H523.751V427.63ZM651.445 565V427.63H689.065C702.618 427.63 714.145 429.72 723.645 433.9C733.145 437.953 740.808 443.4 746.635 450.24C752.588 457.08 756.895 464.68 759.555 473.04C762.341 481.273 763.735 489.57 763.735 497.93C763.735 508.19 761.898 517.5 758.225 525.86C754.551 534.093 749.548 541.123 743.215 546.95C736.881 552.777 729.598 557.273 721.365 560.44C713.258 563.48 704.708 565 695.715 565H651.445ZM669.875 547.14H692.105C702.111 547.14 711.041 545.177 718.895 541.25C726.875 537.323 733.145 531.623 737.705 524.15C742.265 516.55 744.545 507.367 744.545 496.6C744.545 485.453 742.138 476.08 737.325 468.48C732.638 460.88 726.368 455.117 718.515 451.19C710.788 447.263 702.555 445.3 693.815 445.3H669.875V547.14ZM783.085 565L843.125 421.93H844.265L904.305 565H883.025L868.775 528.9H815.955L801.325 565H783.085ZM822.415 512.94H862.505L842.935 462.97L822.415 512.94ZM918.841 427.63H1010.04V445.3H973.181V565H954.751V445.3H918.841V427.63ZM1024.74 565L1084.78 421.93H1085.92L1145.96 565H1124.68L1110.43 528.9H1057.61L1042.98 565H1024.74ZM1064.07 512.94H1104.16L1084.59 462.97L1064.07 512.94ZM1216.67 427.63C1230.35 427.63 1241.12 430.48 1248.97 436.18C1256.95 441.753 1260.94 450.43 1260.94 462.21C1260.94 469.557 1259.3 475.89 1256 481.21C1252.71 486.53 1248.15 490.71 1242.32 493.75C1249.92 496.663 1256.07 500.907 1260.75 506.48C1265.44 512.053 1267.78 518.703 1267.78 526.43C1267.78 535.55 1265.57 542.96 1261.13 548.66C1256.83 554.36 1251.19 558.54 1244.22 561.2C1237.26 563.733 1229.85 565 1221.99 565H1181.14V427.63H1216.67ZM1220.47 487.67C1227.95 487.67 1233.39 485.58 1236.81 481.4C1240.23 477.093 1241.94 471.963 1241.94 466.01C1241.94 458.79 1239.73 453.533 1235.29 450.24C1230.86 446.947 1224.91 445.3 1217.43 445.3H1199.57V487.67H1220.47ZM1221.23 547.9C1228.83 547.9 1235.29 546.19 1240.61 542.77C1246.06 539.223 1248.78 533.84 1248.78 526.62C1248.78 521.3 1247.33 517.12 1244.41 514.08C1241.5 511.04 1237.83 508.887 1233.39 507.62C1229.09 506.227 1224.59 505.53 1219.9 505.53H1199.57V547.9H1221.23ZM1291.63 565L1351.67 421.93H1352.81L1412.85 565H1391.57L1377.32 528.9H1324.5L1309.87 565H1291.63ZM1330.96 512.94H1371.05L1351.48 462.97L1330.96 512.94ZM1519.09 452.14C1514.41 449.733 1509.28 447.643 1503.7 445.87C1498.13 444.097 1492.75 443.21 1487.55 443.21C1480.08 443.21 1474.13 444.92 1469.69 448.34C1465.39 451.76 1463.23 456.383 1463.23 462.21C1463.23 466.39 1464.63 469.937 1467.41 472.85C1470.33 475.763 1474 478.36 1478.43 480.64C1482.99 482.793 1487.81 484.82 1492.87 486.72C1498.57 488.873 1504.08 491.47 1509.4 494.51C1514.72 497.55 1519.09 501.667 1522.51 506.86C1526.06 511.927 1527.83 518.767 1527.83 527.38C1527.83 534.727 1526 541.377 1522.32 547.33C1518.65 553.157 1513.46 557.843 1506.74 561.39C1500.03 564.81 1492.05 566.52 1482.8 566.52C1473.68 566.52 1465.2 565.063 1457.34 562.15C1449.62 559.237 1443.03 555.88 1437.58 552.08L1445.75 537.45C1450.19 540.87 1455.63 543.847 1462.09 546.38C1468.68 548.913 1474.95 550.18 1480.9 550.18C1485.34 550.18 1489.64 549.42 1493.82 547.9C1498.13 546.38 1501.68 543.973 1504.46 540.68C1507.25 537.26 1508.64 532.89 1508.64 527.57C1508.64 523.01 1507.38 519.147 1504.84 515.98C1502.31 512.813 1499.02 510.153 1494.96 508C1491.04 505.72 1486.73 503.693 1482.04 501.92C1477.74 500.4 1473.37 498.627 1468.93 496.6C1464.5 494.573 1460.38 492.167 1456.58 489.38C1452.91 486.467 1449.93 482.92 1447.65 478.74C1445.37 474.56 1444.23 469.493 1444.23 463.54C1444.23 456.32 1445.94 450.05 1449.36 444.73C1452.91 439.283 1457.72 435.04 1463.8 432C1469.88 428.833 1476.91 427.123 1484.89 426.87C1493.63 426.87 1501.36 427.947 1508.07 430.1C1514.91 432.253 1520.93 434.85 1526.12 437.89L1519.09 452.14ZM1568.12 427.63H1657.42V445.3H1586.55V487.1H1649.82V504.77H1586.55V547.14H1660.08V565H1568.12V427.63ZM1820.88 569.37L1719.99 467.15L1720.37 565H1701.75V423.45H1702.7L1803.4 527.19L1803.02 427.63H1821.45V569.37H1820.88Z" fill="black"/>
<path d="M69.5696 427.63V422.63H64.5696V427.63H69.5696ZM151.08 427.63H156.08V422.63H151.08V427.63ZM151.08 445.3V450.3H156.08V445.3H151.08ZM87.9996 445.3V440.3H82.9996V445.3H87.9996ZM87.9996 489H82.9996V494H87.9996V489ZM143.29 489H148.29V484H143.29V489ZM143.29 506.67V511.67H148.29V506.67H143.29ZM87.9996 506.67V501.67H82.9996V506.67H87.9996ZM87.9996 565V570H92.9996V565H87.9996ZM69.5696 565H64.5696V570H69.5696V565ZM69.5696 432.63H151.08V422.63H69.5696V432.63ZM146.08 427.63V445.3H156.08V427.63H146.08ZM151.08 440.3H87.9996V450.3H151.08V440.3ZM82.9996 445.3V489H92.9996V445.3H82.9996ZM87.9996 494H143.29V484H87.9996V494ZM138.29 489V506.67H148.29V489H138.29ZM143.29 501.67H87.9996V511.67H143.29V501.67ZM82.9996 506.67V565H92.9996V506.67H82.9996ZM87.9996 560H69.5696V570H87.9996V560ZM74.5696 565V427.63H64.5696V565H74.5696ZM206.902 568.42L202.535 565.986L202.511 566.028L202.489 566.071L206.902 568.42ZM189.612 586.47L187.14 582.124L187.112 582.14L187.084 582.157L189.612 586.47ZM164.342 593.31H159.342V598.445L164.476 598.308L164.342 593.31ZM164.342 575.45L164.057 570.458L159.342 570.728V575.45H164.342ZM186.192 565.95L182.696 562.376L182.657 562.414L182.618 562.454L186.192 565.95ZM194.932 427.63V422.63H189.932V427.63H194.932ZM213.362 427.63H218.362V422.63H213.362V427.63ZM208.362 540.11C208.362 550.622 206.332 559.173 202.535 565.986L211.27 570.854C216.086 562.214 218.362 551.891 218.362 540.11H208.362ZM202.489 566.071C198.729 573.134 193.619 578.438 187.14 582.124L192.085 590.816C200.299 586.142 206.716 579.412 211.316 570.769L202.489 566.071ZM187.084 582.157C180.546 585.989 172.965 588.078 164.209 588.312L164.476 598.308C174.72 598.035 183.985 595.565 192.141 590.783L187.084 582.157ZM169.342 593.31V575.45H159.342V593.31H169.342ZM164.628 580.442C174.618 579.871 183.114 576.247 189.767 569.446L182.618 562.454C177.871 567.306 171.801 570.016 164.057 570.458L164.628 580.442ZM189.689 569.524C196.845 562.524 199.932 552.171 199.932 539.54H189.932C189.932 550.723 187.193 557.976 182.696 562.376L189.689 569.524ZM199.932 539.54V427.63H189.932V539.54H199.932ZM194.932 432.63H213.362V422.63H194.932V432.63ZM208.362 427.63V540.11H218.362V427.63H208.362ZM262.427 427.63V422.63H257.427V427.63H262.427ZM351.727 427.63H356.727V422.63H351.727V427.63ZM351.727 445.3V450.3H356.727V445.3H351.727ZM280.857 445.3V440.3H275.857V445.3H280.857ZM280.857 487.1H275.857V492.1H280.857V487.1ZM344.127 487.1H349.127V482.1H344.127V487.1ZM344.127 504.77V509.77H349.127V504.77H344.127ZM280.857 504.77V499.77H275.857V504.77H280.857ZM280.857 547.14H275.857V552.14H280.857V547.14ZM354.387 547.14H359.387V542.14H354.387V547.14ZM354.387 565V570H359.387V565H354.387ZM262.427 565H257.427V570H262.427V565ZM262.427 432.63H351.727V422.63H262.427V432.63ZM346.727 427.63V445.3H356.727V427.63H346.727ZM351.727 440.3H280.857V450.3H351.727V440.3ZM275.857 445.3V487.1H285.857V445.3H275.857ZM280.857 492.1H344.127V482.1H280.857V492.1ZM339.127 487.1V504.77H349.127V487.1H339.127ZM344.127 499.77H280.857V509.77H344.127V499.77ZM275.857 504.77V547.14H285.857V504.77H275.857ZM280.857 552.14H354.387V542.14H280.857V552.14ZM349.387 547.14V565H359.387V547.14H349.387ZM354.387 560H262.427V570H354.387V560ZM267.427 565V427.63H257.427V565H267.427ZM396.058 427.63V422.63H391.058V427.63H396.058ZM414.488 427.63H419.488V422.63H414.488V427.63ZM414.488 547.14H409.488V552.14H414.488V547.14ZM484.408 547.14H489.408V542.14H484.408V547.14ZM484.408 565V570H489.408V565H484.408ZM396.058 565H391.058V570H396.058V565ZM396.058 432.63H414.488V422.63H396.058V432.63ZM409.488 427.63V547.14H419.488V427.63H409.488ZM414.488 552.14H484.408V542.14H414.488V552.14ZM479.408 547.14V565H489.408V547.14H479.408ZM484.408 560H396.058V570H484.408V560ZM401.058 565V427.63H391.058V565H401.058ZM523.751 427.63V422.63H518.751V427.63H523.751ZM542.181 427.63H547.181V422.63H542.181V427.63ZM542.181 547.14H537.181V552.14H542.181V547.14ZM612.101 547.14H617.101V542.14H612.101V547.14ZM612.101 565V570H617.101V565H612.101ZM523.751 565H518.751V570H523.751V565ZM523.751 432.63H542.181V422.63H523.751V432.63ZM537.181 427.63V547.14H547.181V427.63H537.181ZM542.181 552.14H612.101V542.14H542.181V552.14ZM607.101 547.14V565H617.101V547.14H607.101ZM612.101 560H523.751V570H612.101V560ZM528.751 565V427.63H518.751V565H528.751ZM651.445 565H646.445V570H651.445V565ZM651.445 427.63V422.63H646.445V427.63H651.445ZM723.645 433.9L721.631 438.477L721.657 438.488L721.682 438.499L723.645 433.9ZM746.635 450.24L742.828 453.482L742.846 453.503L742.863 453.523L746.635 450.24ZM759.555 473.04L754.79 474.556L754.804 474.6L754.818 474.643L759.555 473.04ZM758.225 525.86L762.791 527.897L762.797 527.884L762.802 527.871L758.225 525.86ZM743.215 546.95L739.829 543.27L743.215 546.95ZM721.365 560.44L723.12 565.122L723.14 565.114L723.159 565.107L721.365 560.44ZM669.875 547.14H664.875V552.14H669.875V547.14ZM718.895 541.25L716.687 536.764L716.673 536.771L716.659 536.778L718.895 541.25ZM737.705 524.15L741.973 526.754L741.982 526.738L741.992 526.722L737.705 524.15ZM737.325 468.48L733.069 471.104L733.084 471.13L733.1 471.155L737.325 468.48ZM718.515 451.19L716.249 455.647L716.264 455.655L716.279 455.662L718.515 451.19ZM669.875 445.3V440.3H664.875V445.3H669.875ZM656.445 565V427.63H646.445V565H656.445ZM651.445 432.63H689.065V422.63H651.445V432.63ZM689.065 432.63C702.127 432.63 712.928 434.647 721.631 438.477L725.658 429.323C715.361 424.793 703.109 422.63 689.065 422.63V432.63ZM721.682 438.499C730.578 442.294 737.573 447.313 742.828 453.482L750.441 446.998C744.043 439.487 735.711 433.612 725.607 429.301L721.682 438.499ZM742.863 453.523C748.384 459.865 752.344 466.869 754.79 474.556L764.319 471.524C761.445 462.491 756.792 454.295 750.406 446.957L742.863 453.523ZM754.818 474.643C757.437 482.381 758.735 490.137 758.735 497.93H768.735C768.735 489.003 767.245 480.166 764.291 471.437L754.818 474.643ZM758.735 497.93C758.735 507.583 757.009 516.197 753.647 523.849L762.802 527.871C766.787 518.803 768.735 508.797 768.735 497.93H758.735ZM753.658 523.823C750.249 531.464 745.637 537.927 739.829 543.27L746.6 550.63C753.458 544.32 758.853 536.723 762.791 527.897L753.658 523.823ZM739.829 543.27C733.971 548.66 727.23 552.827 719.57 555.773L723.159 565.107C731.965 561.72 739.792 556.893 746.6 550.63L739.829 543.27ZM719.609 555.758C712.085 558.58 704.132 560 695.715 560V570C705.284 570 714.43 568.38 723.12 565.122L719.609 555.758ZM695.715 560H651.445V570H695.715V560ZM669.875 552.14H692.105V542.14H669.875V552.14ZM692.105 552.14C702.779 552.14 712.492 550.042 721.131 545.722L716.659 536.778C709.591 540.312 701.444 542.14 692.105 542.14V552.14ZM721.102 545.736C729.919 541.398 736.91 535.051 741.973 526.754L733.436 521.546C729.379 528.195 723.83 533.249 716.687 536.764L721.102 545.736ZM741.992 526.722C747.109 518.194 749.545 508.078 749.545 496.6H739.545C739.545 506.655 737.42 514.906 733.417 521.578L741.992 526.722ZM749.545 496.6C749.545 484.732 746.978 474.377 741.549 465.805L733.1 471.155C737.298 477.783 739.545 486.174 739.545 496.6H749.545ZM741.58 465.856C736.414 457.478 729.451 451.068 720.751 446.718L716.279 455.662C723.285 459.165 728.862 464.282 733.069 471.104L741.58 465.856ZM720.78 446.733C712.345 442.446 703.335 440.3 693.815 440.3V450.3C701.774 450.3 709.231 452.081 716.249 455.647L720.78 446.733ZM693.815 440.3H669.875V450.3H693.815V440.3ZM664.875 445.3V547.14H674.875V445.3H664.875ZM783.085 565L778.474 563.065L775.564 570H783.085V565ZM843.125 421.93V416.93H839.801L838.514 419.995L843.125 421.93ZM844.265 421.93L848.875 419.995L847.589 416.93H844.265V421.93ZM904.305 565V570H911.826L908.915 563.065L904.305 565ZM883.025 565L878.374 566.836L879.623 570H883.025V565ZM868.775 528.9L873.426 527.064L872.177 523.9H868.775V528.9ZM815.955 528.9V523.9H812.586L811.321 527.022L815.955 528.9ZM801.325 565V570H804.694L805.959 566.878L801.325 565ZM822.415 512.94L817.79 511.041L814.956 517.94H822.415V512.94ZM862.505 512.94V517.94H869.833L867.161 511.117L862.505 512.94ZM842.935 462.97L847.591 461.147L843.045 449.54L838.31 461.071L842.935 462.97ZM787.695 566.935L847.735 423.865L838.514 419.995L778.474 563.065L787.695 566.935ZM843.125 426.93H844.265V416.93H843.125V426.93ZM839.654 423.865L899.694 566.935L908.915 563.065L848.875 419.995L839.654 423.865ZM904.305 560H883.025V570H904.305V560ZM887.676 563.164L873.426 527.064L864.124 530.736L878.374 566.836L887.676 563.164ZM868.775 523.9H815.955V533.9H868.775V523.9ZM811.321 527.022L796.691 563.122L805.959 566.878L820.589 530.778L811.321 527.022ZM801.325 560H783.085V570H801.325V560ZM822.415 517.94H862.505V507.94H822.415V517.94ZM867.161 511.117L847.591 461.147L838.279 464.793L857.849 514.763L867.161 511.117ZM838.31 461.071L817.79 511.041L827.04 514.839L847.56 464.869L838.31 461.071ZM918.841 427.63V422.63H913.841V427.63H918.841ZM1010.04 427.63H1015.04V422.63H1010.04V427.63ZM1010.04 445.3V450.3H1015.04V445.3H1010.04ZM973.181 445.3V440.3H968.181V445.3H973.181ZM973.181 565V570H978.181V565H973.181ZM954.751 565H949.751V570H954.751V565ZM954.751 445.3H959.751V440.3H954.751V445.3ZM918.841 445.3H913.841V450.3H918.841V445.3ZM918.841 432.63H1010.04V422.63H918.841V432.63ZM1005.04 427.63V445.3H1015.04V427.63H1005.04ZM1010.04 440.3H973.181V450.3H1010.04V440.3ZM968.181 445.3V565H978.181V445.3H968.181ZM973.181 560H954.751V570H973.181V560ZM959.751 565V445.3H949.751V565H959.751ZM954.751 440.3H918.841V450.3H954.751V440.3ZM923.841 445.3V427.63H913.841V445.3H923.841ZM1024.74 565L1020.13 563.065L1017.22 570H1024.74V565ZM1084.78 421.93V416.93H1081.46L1080.17 419.995L1084.78 421.93ZM1085.92 421.93L1090.53 419.995L1089.25 416.93H1085.92V421.93ZM1145.96 565V570H1153.48L1150.57 563.065L1145.96 565ZM1124.68 565L1120.03 566.836L1121.28 570H1124.68V565ZM1110.43 528.9L1115.08 527.064L1113.83 523.9H1110.43V528.9ZM1057.61 528.9V523.9H1054.24L1052.98 527.022L1057.61 528.9ZM1042.98 565V570H1046.35L1047.62 566.878L1042.98 565ZM1064.07 512.94L1059.45 511.041L1056.61 517.94H1064.07V512.94ZM1104.16 512.94V517.94H1111.49L1108.82 511.117L1104.16 512.94ZM1084.59 462.97L1089.25 461.147L1084.7 449.54L1079.97 461.071L1084.59 462.97ZM1029.35 566.935L1089.39 423.865L1080.17 419.995L1020.13 563.065L1029.35 566.935ZM1084.78 426.93H1085.92V416.93H1084.78V426.93ZM1081.31 423.865L1141.35 566.935L1150.57 563.065L1090.53 419.995L1081.31 423.865ZM1145.96 560H1124.68V570H1145.96V560ZM1129.33 563.164L1115.08 527.064L1105.78 530.736L1120.03 566.836L1129.33 563.164ZM1110.43 523.9H1057.61V533.9H1110.43V523.9ZM1052.98 527.022L1038.35 563.122L1047.62 566.878L1062.25 530.778L1052.98 527.022ZM1042.98 560H1024.74V570H1042.98V560ZM1064.07 517.94H1104.16V507.94H1064.07V517.94ZM1108.82 511.117L1089.25 461.147L1079.94 464.793L1099.51 514.763L1108.82 511.117ZM1079.97 461.071L1059.45 511.041L1068.7 514.839L1089.22 464.869L1079.97 461.071ZM1248.97 436.18L1246.04 440.226L1246.07 440.253L1246.11 440.279L1248.97 436.18ZM1256 481.21L1251.75 478.578L1256 481.21ZM1242.32 493.75L1240.01 489.317L1230.18 494.448L1240.53 498.419L1242.32 493.75ZM1260.75 506.48L1256.93 509.698L1260.75 506.48ZM1261.13 548.66L1257.19 545.59L1257.17 545.618L1257.14 545.646L1261.13 548.66ZM1244.22 561.2L1245.93 565.899L1245.97 565.885L1246.01 565.871L1244.22 561.2ZM1181.14 565H1176.14V570H1181.14V565ZM1181.14 427.63V422.63H1176.14V427.63H1181.14ZM1236.81 481.4L1240.68 484.566L1240.71 484.538L1240.73 484.509L1236.81 481.4ZM1235.29 450.24L1238.28 446.226L1235.29 450.24ZM1199.57 445.3V440.3H1194.57V445.3H1199.57ZM1199.57 487.67H1194.57V492.67H1199.57V487.67ZM1240.61 542.77L1243.32 546.976L1243.33 546.968L1243.34 546.96L1240.61 542.77ZM1244.41 514.08L1240.8 517.54L1244.41 514.08ZM1233.39 507.62L1231.85 512.377L1231.94 512.404L1232.02 512.428L1233.39 507.62ZM1199.57 505.53V500.53H1194.57V505.53H1199.57ZM1199.57 547.9H1194.57V552.9H1199.57V547.9ZM1216.67 432.63C1229.72 432.63 1239.32 435.354 1246.04 440.226L1251.91 432.133C1242.92 425.606 1230.99 422.63 1216.67 422.63V432.63ZM1246.11 440.279C1252.46 444.714 1255.94 451.673 1255.94 462.21H1265.94C1265.94 449.187 1261.45 438.792 1251.84 432.081L1246.11 440.279ZM1255.94 462.21C1255.94 468.791 1254.48 474.178 1251.75 478.578L1260.26 483.842C1264.12 477.602 1265.94 470.322 1265.94 462.21H1255.94ZM1251.75 478.578C1248.96 483.096 1245.08 486.671 1240.01 489.317L1244.64 498.183C1251.22 494.749 1256.46 489.964 1260.26 483.842L1251.75 478.578ZM1240.53 498.419C1247.44 501.065 1252.85 504.847 1256.93 509.698L1264.58 503.262C1259.29 496.967 1252.41 492.261 1244.11 489.081L1240.53 498.419ZM1256.93 509.698C1260.81 514.312 1262.78 519.803 1262.78 526.43H1272.78C1272.78 517.604 1270.07 509.794 1264.58 503.262L1256.93 509.698ZM1262.78 526.43C1262.78 534.735 1260.78 540.977 1257.19 545.59L1265.08 551.73C1270.36 544.943 1272.78 536.365 1272.78 526.43H1262.78ZM1257.14 545.646C1253.43 550.564 1248.57 554.188 1242.44 556.529L1246.01 565.871C1253.81 562.892 1260.23 558.156 1265.12 551.674L1257.14 545.646ZM1242.52 556.501C1236.13 558.824 1229.3 560 1221.99 560V570C1230.4 570 1238.39 568.643 1245.93 565.899L1242.52 556.501ZM1221.99 560H1181.14V570H1221.99V560ZM1186.14 565V427.63H1176.14V565H1186.14ZM1181.14 432.63H1216.67V422.63H1181.14V432.63ZM1220.47 492.67C1228.84 492.67 1235.99 490.306 1240.68 484.566L1232.94 478.234C1230.8 480.854 1227.05 482.67 1220.47 482.67V492.67ZM1240.73 484.509C1244.91 479.244 1246.94 472.993 1246.94 466.01H1236.94C1236.94 470.934 1235.56 474.943 1232.9 478.291L1240.73 484.509ZM1246.94 466.01C1246.94 457.74 1244.35 450.741 1238.28 446.226L1232.31 454.254C1235.1 456.326 1236.94 459.84 1236.94 466.01H1246.94ZM1238.28 446.226C1232.72 442.1 1225.61 440.3 1217.43 440.3V450.3C1224.21 450.3 1229 451.793 1232.31 454.254L1238.28 446.226ZM1217.43 440.3H1199.57V450.3H1217.43V440.3ZM1194.57 445.3V487.67H1204.57V445.3H1194.57ZM1199.57 492.67H1220.47V482.67H1199.57V492.67ZM1221.23 552.9C1229.6 552.9 1237.04 551.011 1243.32 546.976L1237.91 538.564C1233.55 541.369 1228.07 542.9 1221.23 542.9V552.9ZM1243.34 546.96C1250.38 542.376 1253.78 535.309 1253.78 526.62H1243.78C1243.78 532.371 1241.74 536.071 1237.89 538.58L1243.34 546.96ZM1253.78 526.62C1253.78 520.366 1252.05 514.82 1248.02 510.62L1240.8 517.54C1242.61 519.42 1243.78 522.234 1243.78 526.62H1253.78ZM1248.02 510.62C1244.44 506.881 1239.97 504.299 1234.77 502.812L1232.02 512.428C1235.69 513.475 1238.56 515.199 1240.8 517.54L1248.02 510.62ZM1234.93 502.863C1230.11 501.303 1225.09 500.53 1219.9 500.53V510.53C1224.09 510.53 1228.06 511.15 1231.85 512.377L1234.93 502.863ZM1219.9 500.53H1199.57V510.53H1219.9V500.53ZM1194.57 505.53V547.9H1204.57V505.53H1194.57ZM1199.57 552.9H1221.23V542.9H1199.57V552.9ZM1291.63 565L1287.02 563.065L1284.11 570H1291.63V565ZM1351.67 421.93V416.93H1348.35L1347.06 419.995L1351.67 421.93ZM1352.81 421.93L1357.42 419.995L1356.14 416.93H1352.81V421.93ZM1412.85 565V570H1420.37L1417.46 563.065L1412.85 565ZM1391.57 565L1386.92 566.836L1388.17 570H1391.57V565ZM1377.32 528.9L1381.97 527.064L1380.72 523.9H1377.32V528.9ZM1324.5 528.9V523.9H1321.13L1319.87 527.022L1324.5 528.9ZM1309.87 565V570H1313.24L1314.51 566.878L1309.87 565ZM1330.96 512.94L1326.34 511.041L1323.5 517.94H1330.96V512.94ZM1371.05 512.94V517.94H1378.38L1375.71 511.117L1371.05 512.94ZM1351.48 462.97L1356.14 461.147L1351.59 449.54L1346.86 461.071L1351.48 462.97ZM1296.24 566.935L1356.28 423.865L1347.06 419.995L1287.02 563.065L1296.24 566.935ZM1351.67 426.93H1352.81V416.93H1351.67V426.93ZM1348.2 423.865L1408.24 566.935L1417.46 563.065L1357.42 419.995L1348.2 423.865ZM1412.85 560H1391.57V570H1412.85V560ZM1396.22 563.164L1381.97 527.064L1372.67 530.736L1386.92 566.836L1396.22 563.164ZM1377.32 523.9H1324.5V533.9H1377.32V523.9ZM1319.87 527.022L1305.24 563.122L1314.51 566.878L1329.14 530.778L1319.87 527.022ZM1309.87 560H1291.63V570H1309.87V560ZM1330.96 517.94H1371.05V507.94H1330.96V517.94ZM1375.71 511.117L1356.14 461.147L1346.83 464.793L1366.4 514.763L1375.71 511.117ZM1346.86 461.071L1326.34 511.041L1335.59 514.839L1356.11 464.869L1346.86 461.071ZM1519.09 452.14L1516.81 456.588L1521.33 458.909L1523.58 454.352L1519.09 452.14ZM1469.69 448.34L1466.64 444.381L1466.61 444.403L1466.58 444.424L1469.69 448.34ZM1467.41 472.85L1463.8 476.306L1463.84 476.346L1463.88 476.386L1467.41 472.85ZM1478.43 480.64L1476.15 485.086L1476.22 485.125L1476.3 485.161L1478.43 480.64ZM1492.87 486.72L1494.64 482.043L1494.63 482.038L1492.87 486.72ZM1509.4 494.51L1511.89 490.169L1509.4 494.51ZM1522.51 506.86L1518.34 509.61L1518.38 509.669L1518.42 509.727L1522.51 506.86ZM1522.32 547.33L1526.55 549.997L1526.57 549.976L1526.58 549.956L1522.32 547.33ZM1506.74 561.39L1509.01 565.845L1509.05 565.828L1509.08 565.811L1506.74 561.39ZM1457.34 562.15L1455.58 566.828L1455.59 566.833L1455.61 566.838L1457.34 562.15ZM1437.58 552.08L1433.22 549.642L1431.01 553.592L1434.72 556.181L1437.58 552.08ZM1445.75 537.45L1448.81 533.491L1444.22 529.949L1441.39 535.012L1445.75 537.45ZM1462.09 546.38L1460.27 551.035L1460.28 551.041L1460.3 551.047L1462.09 546.38ZM1493.82 547.9L1492.16 543.185L1492.14 543.193L1492.12 543.201L1493.82 547.9ZM1504.46 540.68L1508.28 543.91L1508.31 543.874L1508.34 543.838L1504.46 540.68ZM1504.84 515.98L1508.75 512.857L1504.84 515.98ZM1494.96 508L1492.45 512.324L1492.54 512.371L1492.62 512.416L1494.96 508ZM1482.04 501.92L1483.81 497.244L1483.76 497.224L1483.71 497.205L1482.04 501.92ZM1468.93 496.6L1471.01 492.053L1468.93 496.6ZM1456.58 489.38L1453.48 493.297L1453.55 493.356L1453.63 493.412L1456.58 489.38ZM1449.36 444.73L1445.17 442.002L1445.17 442.014L1445.16 442.026L1449.36 444.73ZM1463.8 432L1466.04 436.472L1466.08 436.454L1466.11 436.435L1463.8 432ZM1484.89 426.87V421.87H1484.82L1484.74 421.873L1484.89 426.87ZM1508.07 430.1L1506.55 434.861L1506.56 434.865L1506.57 434.869L1508.07 430.1ZM1526.12 437.89L1530.61 440.102L1532.67 435.927L1528.65 433.575L1526.12 437.89ZM1521.38 447.692C1516.42 445.146 1511.03 442.954 1505.22 441.105L1502.19 450.635C1507.53 452.333 1512.4 454.321 1516.81 456.588L1521.38 447.692ZM1505.22 441.105C1499.22 439.195 1493.32 438.21 1487.55 438.21V448.21C1492.17 448.21 1497.04 448.998 1502.19 450.635L1505.22 441.105ZM1487.55 438.21C1479.34 438.21 1472.2 440.091 1466.64 444.381L1472.75 452.299C1476.05 449.749 1480.82 448.21 1487.55 448.21V438.21ZM1466.58 444.424C1461 448.856 1458.23 454.963 1458.23 462.21H1468.23C1468.23 457.804 1469.77 454.664 1472.8 452.256L1466.58 444.424ZM1458.23 462.21C1458.23 467.625 1460.09 472.425 1463.8 476.306L1471.03 469.394C1469.17 467.448 1468.23 465.155 1468.23 462.21H1458.23ZM1463.88 476.386C1467.23 479.733 1471.35 482.617 1476.15 485.086L1480.72 476.194C1476.66 474.103 1473.43 471.794 1470.95 469.314L1463.88 476.386ZM1476.3 485.161C1480.99 487.377 1485.93 489.457 1491.12 491.402L1494.63 482.038C1489.68 480.183 1485 478.209 1480.57 476.119L1476.3 485.161ZM1491.11 491.397C1496.56 493.457 1501.83 495.941 1506.92 498.851L1511.89 490.169C1506.34 486.999 1500.59 484.29 1494.64 482.043L1491.11 491.397ZM1506.92 498.851C1511.55 501.495 1515.34 505.063 1518.34 509.61L1526.69 504.11C1522.84 498.271 1517.9 493.605 1511.89 490.169L1506.92 498.851ZM1518.42 509.727C1521.19 513.682 1522.83 519.402 1522.83 527.38H1532.83C1532.83 518.132 1530.94 510.171 1526.61 503.993L1518.42 509.727ZM1522.83 527.38C1522.83 533.848 1521.23 539.581 1518.07 544.704L1526.58 549.956C1530.76 543.173 1532.83 535.605 1532.83 527.38H1522.83ZM1518.09 544.663C1514.94 549.676 1510.43 553.788 1504.41 556.969L1509.08 565.811C1516.49 561.898 1522.37 556.638 1526.55 549.997L1518.09 544.663ZM1504.47 556.935C1498.61 559.924 1491.44 561.52 1482.8 561.52V571.52C1492.66 571.52 1501.46 569.696 1509.01 565.845L1504.47 556.935ZM1482.8 561.52C1474.23 561.52 1466.33 560.151 1459.08 557.462L1455.61 566.838C1464.06 569.975 1473.14 571.52 1482.8 571.52V561.52ZM1459.11 557.472C1451.68 554.671 1445.48 551.493 1440.45 547.979L1434.72 556.181C1440.58 560.267 1447.56 563.803 1455.58 566.828L1459.11 557.472ZM1441.95 554.518L1450.12 539.888L1441.39 535.012L1433.22 549.642L1441.95 554.518ZM1442.7 541.409C1447.59 545.177 1453.47 548.368 1460.27 551.035L1463.92 541.725C1457.8 539.325 1452.79 536.563 1448.81 533.491L1442.7 541.409ZM1460.3 551.047C1467.36 553.76 1474.24 555.18 1480.9 555.18V545.18C1475.67 545.18 1470.01 544.066 1463.89 541.713L1460.3 551.047ZM1480.9 555.18C1485.92 555.18 1490.81 554.317 1495.53 552.599L1492.12 543.201C1488.48 544.523 1484.75 545.18 1480.9 545.18V555.18ZM1495.49 552.615C1500.58 550.818 1504.89 547.92 1508.28 543.91L1500.65 537.45C1498.47 540.026 1495.68 541.942 1492.16 543.185L1495.49 552.615ZM1508.34 543.838C1512 539.353 1513.64 533.795 1513.64 527.57H1503.64C1503.64 531.985 1502.51 535.167 1500.59 537.522L1508.34 543.838ZM1513.64 527.57C1513.64 522.024 1512.08 517.02 1508.75 512.857L1500.94 519.103C1502.68 521.274 1503.64 523.996 1503.64 527.57H1513.64ZM1508.75 512.857C1505.74 509.092 1501.89 506.016 1497.31 503.584L1492.62 512.416C1496.15 514.291 1498.89 516.535 1500.94 519.103L1508.75 512.857ZM1497.48 503.676C1493.29 501.245 1488.73 499.104 1483.81 497.244L1480.27 506.596C1484.73 508.283 1488.79 510.195 1492.45 512.324L1497.48 503.676ZM1483.71 497.205C1479.55 495.738 1475.32 494.021 1471.01 492.053L1466.86 501.147C1471.42 503.232 1475.92 505.062 1480.38 506.635L1483.71 497.205ZM1471.01 492.053C1466.88 490.163 1463.06 487.927 1459.54 485.348L1453.63 493.412C1457.71 496.407 1462.12 498.984 1466.86 501.147L1471.01 492.053ZM1459.69 485.463C1456.55 482.972 1454.01 479.947 1452.04 476.346L1443.26 481.134C1445.86 485.893 1449.27 489.961 1453.48 493.297L1459.69 485.463ZM1452.04 476.346C1450.25 473.062 1449.23 468.863 1449.23 463.54H1439.23C1439.23 470.124 1440.5 476.058 1443.26 481.134L1452.04 476.346ZM1449.23 463.54C1449.23 457.139 1450.74 451.838 1453.57 447.434L1445.16 442.026C1441.15 448.262 1439.23 455.501 1439.23 463.54H1449.23ZM1453.55 447.458C1456.59 442.791 1460.72 439.134 1466.04 436.472L1461.57 427.528C1454.73 430.946 1449.23 435.776 1445.17 442.002L1453.55 447.458ZM1466.11 436.435C1471.43 433.667 1477.7 432.101 1485.05 431.867L1484.74 421.873C1476.13 422.146 1468.34 423.999 1461.49 427.565L1466.11 436.435ZM1484.89 431.87C1493.24 431.87 1500.43 432.899 1506.55 434.861L1509.6 425.339C1502.29 422.995 1494.03 421.87 1484.89 421.87V431.87ZM1506.57 434.869C1513.12 436.931 1518.78 439.386 1523.6 442.205L1528.65 433.575C1523.08 430.314 1516.71 427.576 1509.58 425.331L1506.57 434.869ZM1521.64 435.678L1514.61 449.928L1523.58 454.352L1530.61 440.102L1521.64 435.678ZM1568.12 427.63V422.63H1563.12V427.63H1568.12ZM1657.42 427.63H1662.42V422.63H1657.42V427.63ZM1657.42 445.3V450.3H1662.42V445.3H1657.42ZM1586.55 445.3V440.3H1581.55V445.3H1586.55ZM1586.55 487.1H1581.55V492.1H1586.55V487.1ZM1649.82 487.1H1654.82V482.1H1649.82V487.1ZM1649.82 504.77V509.77H1654.82V504.77H1649.82ZM1586.55 504.77V499.77H1581.55V504.77H1586.55ZM1586.55 547.14H1581.55V552.14H1586.55V547.14ZM1660.08 547.14H1665.08V542.14H1660.08V547.14ZM1660.08 565V570H1665.08V565H1660.08ZM1568.12 565H1563.12V570H1568.12V565ZM1568.12 432.63H1657.42V422.63H1568.12V432.63ZM1652.42 427.63V445.3H1662.42V427.63H1652.42ZM1657.42 440.3H1586.55V450.3H1657.42V440.3ZM1581.55 445.3V487.1H1591.55V445.3H1581.55ZM1586.55 492.1H1649.82V482.1H1586.55V492.1ZM1644.82 487.1V504.77H1654.82V487.1H1644.82ZM1649.82 499.77H1586.55V509.77H1649.82V499.77ZM1581.55 504.77V547.14H1591.55V504.77H1581.55ZM1586.55 552.14H1660.08V542.14H1586.55V552.14ZM1655.08 547.14V565H1665.08V547.14H1655.08ZM1660.08 560H1568.12V570H1660.08V560ZM1573.12 565V427.63H1563.12V565H1573.12ZM1820.88 569.37L1817.32 572.882L1818.79 574.37H1820.88V569.37ZM1719.99 467.15L1723.55 463.638L1714.94 454.918L1714.99 467.169L1719.99 467.15ZM1720.37 565V570H1725.39L1725.37 564.981L1720.37 565ZM1701.75 565H1696.75V570H1701.75V565ZM1701.75 423.45V418.45H1696.75V423.45H1701.75ZM1702.7 423.45L1706.29 419.967L1704.82 418.45H1702.7V423.45ZM1803.4 527.19L1799.81 530.673L1808.45 539.568L1808.4 527.171L1803.4 527.19ZM1803.02 427.63V422.63H1798L1798.02 427.649L1803.02 427.63ZM1821.45 427.63H1826.45V422.63H1821.45V427.63ZM1821.45 569.37V574.37H1826.45V569.37H1821.45ZM1824.44 565.858L1723.55 463.638L1716.43 470.662L1817.32 572.882L1824.44 565.858ZM1714.99 467.169L1715.37 565.019L1725.37 564.981L1724.99 467.131L1714.99 467.169ZM1720.37 560H1701.75V570H1720.37V560ZM1706.75 565V423.45H1696.75V565H1706.75ZM1701.75 428.45H1702.7V418.45H1701.75V428.45ZM1699.11 426.933L1799.81 530.673L1806.99 523.707L1706.29 419.967L1699.11 426.933ZM1808.4 527.171L1808.02 427.611L1798.02 427.649L1798.4 527.209L1808.4 527.171ZM1803.02 432.63H1821.45V422.63H1803.02V432.63ZM1816.45 427.63V569.37H1826.45V427.63H1816.45ZM1821.45 564.37H1820.88V574.37H1821.45V564.37Z" fill="black"/>
<defs>
<clipPath id="clip0">
<rect width="1891" height="360" fill="white"/>
</clipPath>
</defs>
</svg>
